<svg xmlns="http://www.w3.org/2000/svg" xmlns:xlink="http://www.w3.org/1999/xlink" version="1.1" class="marks" width="730" height="647" viewBox="0 0 730 647"><rect width="730" height="647" fill="floralwhite"/><g fill="none" stroke-miterlimit="10" transform="translate(50,10)"><g class="mark-group role-frame root" role="graphics-object" aria-roledescription="group mark container"><g transform="translate(0,0)"><path class="background" aria-hidden="true" d="M0.5,0.5h600v600h-600Z" stroke="#ddd"/><g><g class="mark-group role-axis" aria-hidden="true"><g transform="translate(0.5,600.5)"><path class="background" aria-hidden="true" d="M0,0h0v0h0Z" pointer-events="none"/><g><g class="mark-rule role-axis-grid" pointer-events="none"><line transform="translate(0,-600)" x2="0" y2="600" stroke="#ddd" stroke-width="1" opacity="1"/><line transform="translate(30,-600)" x2="0" y2="600" stroke="#ddd" stroke-width="1" opacity="1"/><line transform="translate(60,-600)" x2="0" y2="600" stroke="#ddd" stroke-width="1" opacity="1"/><line transform="translate(90,-600)" x2="0" y2="600" stroke="#ddd" stroke-width="1" opacity="1"/><line transform="translate(120,-600)" x2="0" y2="600" stroke="#ddd" stroke-width="1" opacity="1"/><line transform="translate(150,-600)" x2="0" y2="600" stroke="#ddd" stroke-width="1" opacity="1"/><line transform="translate(180,-600)" x2="0" y2="600" stroke="#ddd" stroke-width="1" opacity="1"/><line transform="translate(210,-600)" x2="0" y2="600" stroke="#ddd" stroke-width="1" opacity="1"/><line transform="translate(240,-600)" x2="0" y2="600" stroke="#ddd" stroke-width="1" opacity="1"/><line transform="translate(270,-600)" x2="0" y2="600" stroke="#ddd" stroke-width="1" opacity="1"/><line transform="translate(300,-600)" x2="0" y2="600" stroke="#ddd" stroke-width="1" opacity="1"/><line transform="translate(330,-600)" x2="0" y2="600" stroke="#ddd" stroke-width="1" opacity="1"/><line transform="translate(360,-600)" x2="0" y2="600" stroke="#ddd" stroke-width="1" opacity="1"/><line transform="translate(390,-600)" x2="0" y2="600" stroke="#ddd" stroke-width="1" opacity="1"/><line transform="translate(420,-600)" x2="0" y2="600" stroke="#ddd" stroke-width="1" opacity="1"/><line transform="translate(450,-600)" x2="0" y2="600" stroke="#ddd" stroke-width="1" opacity="1"/><line transform="translate(480,-600)" x2="0" y2="600" stroke="#ddd" stroke-width="1" opacity="1"/><line transform="translate(510,-600)" x2="0" y2="600" stroke="#ddd" stroke-width="1" opacity="1"/><line transform="translate(540,-600)" x2="0" y2="600" stroke="#ddd" stroke-width="1" opacity="1"/><line transform="translate(570,-600)" x2="0" y2="600" stroke="#ddd" stroke-width="1" opacity="1"/><line transform="translate(600,-600)" x2="0" y2="600" stroke="#ddd" stroke-width="1" opacity="1"/></g></g><path class="foreground" aria-hidden="true" d="" pointer-events="none" display="none"/></g></g><g class="mark-group role-axis" aria-hidden="true"><g transform="translate(0.5,0.5)"><path class="background" aria-hidden="true" d="M0,0h0v0h0Z" pointer-events="none"/><g><g class="mark-rule role-axis-grid" pointer-events="none"><line transform="translate(0,600)" x2="600" y2="0" stroke="#ddd" stroke-width="1" opacity="1"/><line transform="translate(0,570)" x2="600" y2="0" stroke="#ddd" stroke-width="1" opacity="1"/><line transform="translate(0,540)" x2="600" y2="0" stroke="#ddd" stroke-width="1" opacity="1"/><line transform="translate(0,510)" x2="600" y2="0" stroke="#ddd" stroke-width="1" opacity="1"/><line transform="translate(0,480)" x2="600" y2="0" stroke="#ddd" stroke-width="1" opacity="1"/><line transform="translate(0,450)" x2="600" y2="0" stroke="#ddd" stroke-width="1" opacity="1"/><line transform="translate(0,420)" x2="600" y2="0" stroke="#ddd" stroke-width="1" opacity="1"/><line transform="translate(0,390)" x2="600" y2="0" stroke="#ddd" stroke-width="1" opacity="1"/><line transform="translate(0,360)" x2="600" y2="0" stroke="#ddd" stroke-width="1" opacity="1"/><line transform="translate(0,330)" x2="600" y2="0" stroke="#ddd" stroke-width="1" opacity="1"/><line transform="translate(0,300)" x2="600" y2="0" stroke="#ddd" stroke-width="1" opacity="1"/><line transform="translate(0,270)" x2="600" y2="0" stroke="#ddd" stroke-width="1" opacity="1"/><line transform="translate(0,240)" x2="600" y2="0" stroke="#ddd" stroke-width="1" opacity="1"/><line transform="translate(0,210)" x2="600" y2="0" stroke="#ddd" stroke-width="1" opacity="1"/><line transform="translate(0,180)" x2="600" y2="0" stroke="#ddd" stroke-width="1" opacity="1"/><line transform="translate(0,150)" x2="600" y2="0" stroke="#ddd" stroke-width="1" opacity="1"/><line transform="translate(0,120)" x2="600" y2="0" stroke="#ddd" stroke-width="1" opacity="1"/><line transform="translate(0,90)" x2="600" y2="0" stroke="#ddd" stroke-width="1" opacity="1"/><line transform="translate(0,60)" x2="600" y2="0" stroke="#ddd" stroke-width="1" opacity="1"/><line transform="translate(0,30)" x2="600" y2="0" stroke="#ddd" stroke-width="1" opacity="1"/><line transform="translate(0,0)" x2="600" y2="0" stroke="#ddd" stroke-width="1" opacity="1"/></g></g><path class="foreground" aria-hidden="true" d="" pointer-events="none" display="none"/></g></g><g class="mark-group role-axis" role="graphics-symbol" aria-roledescription="axis" aria-label="X-axis titled 'x' for a linear scale with values from −500 to 500"><g transform="translate(0.5,600.5)"><path class="background" aria-hidden="true" d="M0,0h0v0h0Z" pointer-events="none"/><g><g class="mark-rule role-axis-tick" pointer-events="none"><line transform="translate(0,0)" x2="0" y2="5" stroke="#888" stroke-width="1" opacity="1"/><line transform="translate(30,0)" x2="0" y2="5" stroke="#888" stroke-width="1" opacity="1"/><line transform="translate(60,0)" x2="0" y2="5" stroke="#888" stroke-width="1" opacity="1"/><line transform="translate(90,0)" x2="0" y2="5" stroke="#888" stroke-width="1" opacity="1"/><line transform="translate(120,0)" x2="0" y2="5" stroke="#888" stroke-width="1" opacity="1"/><line transform="translate(150,0)" x2="0" y2="5" stroke="#888" stroke-width="1" opacity="1"/><line transform="translate(180,0)" x2="0" y2="5" stroke="#888" stroke-width="1" opacity="1"/><line transform="translate(210,0)" x2="0" y2="5" stroke="#888" stroke-width="1" opacity="1"/><line transform="translate(240,0)" x2="0" y2="5" stroke="#888" stroke-width="1" opacity="1"/><line transform="translate(270,0)" x2="0" y2="5" stroke="#888" stroke-width="1" opacity="1"/><line transform="translate(300,0)" x2="0" y2="5" stroke="#888" stroke-width="1" opacity="1"/><line transform="translate(330,0)" x2="0" y2="5" stroke="#888" stroke-width="1" opacity="1"/><line transform="translate(360,0)" x2="0" y2="5" stroke="#888" stroke-width="1" opacity="1"/><line transform="translate(390,0)" x2="0" y2="5" stroke="#888" stroke-width="1" opacity="1"/><line transform="translate(420,0)" x2="0" y2="5" stroke="#888" stroke-width="1" opacity="1"/><line transform="translate(450,0)" x2="0" y2="5" stroke="#888" stroke-width="1" opacity="1"/><line transform="translate(480,0)" x2="0" y2="5" stroke="#888" stroke-width="1" opacity="1"/><line transform="translate(510,0)" x2="0" y2="5" stroke="#888" stroke-width="1" opacity="1"/><line transform="translate(540,0)" x2="0" y2="5" stroke="#888" stroke-width="1" opacity="1"/><line transform="translate(570,0)" x2="0" y2="5" stroke="#888" stroke-width="1" opacity="1"/><line transform="translate(600,0)" x2="0" y2="5" stroke="#888" stroke-width="1" opacity="1"/></g><g class="mark-text role-axis-label" pointer-events="none"><text text-anchor="start" transform="translate(0,15)" font-family="sans-serif" font-size="10px" fill="#000" opacity="1">−500</text><text text-anchor="middle" transform="translate(30,15)" font-family="sans-serif" font-size="10px" fill="#000" opacity="0">−450</text><text text-anchor="middle" transform="translate(60,15)" font-family="sans-serif" font-size="10px" fill="#000" opacity="1">−400</text><text text-anchor="middle" transform="translate(90,15)" font-family="sans-serif" font-size="10px" fill="#000" opacity="0">−350</text><text text-anchor="middle" transform="translate(120,15)" font-family="sans-serif" font-size="10px" fill="#000" opacity="1">−300</text><text text-anchor="middle" transform="translate(150,15)" font-family="sans-serif" font-size="10px" fill="#000" opacity="0">−250</text><text text-anchor="middle" transform="translate(180,15)" font-family="sans-serif" font-size="10px" fill="#000" opacity="1">−200</text><text text-anchor="middle" transform="translate(210,15)" font-family="sans-serif" font-size="10px" fill="#000" opacity="0">−150</text><text text-anchor="middle" transform="translate(240,15)" font-family="sans-serif" font-size="10px" fill="#000" opacity="1">−100</text><text text-anchor="middle" transform="translate(270,15)" font-family="sans-serif" font-size="10px" fill="#000" opacity="0">−50</text><text text-anchor="middle" transform="translate(300,15)" font-family="sans-serif" font-size="10px" fill="#000" opacity="1">0</text><text text-anchor="middle" transform="translate(330,15)" font-family="sans-serif" font-size="10px" fill="#000" opacity="0">50</text><text text-anchor="middle" transform="translate(360,15)" font-family="sans-serif" font-size="10px" fill="#000" opacity="1">100</text><text text-anchor="middle" transform="translate(390,15)" font-family="sans-serif" font-size="10px" fill="#000" opacity="0">150</text><text text-anchor="middle" transform="translate(420,15)" font-family="sans-serif" font-size="10px" fill="#000" opacity="1">200</text><text text-anchor="middle" transform="translate(450,15)" font-family="sans-serif" font-size="10px" fill="#000" opacity="0">250</text><text text-anchor="middle" transform="translate(480,15)" font-family="sans-serif" font-size="10px" fill="#000" opacity="1">300</text><text text-anchor="middle" transform="translate(510,15)" font-family="sans-serif" font-size="10px" fill="#000" opacity="0">350</text><text text-anchor="middle" transform="translate(540,15)" font-family="sans-serif" font-size="10px" fill="#000" opacity="1">400</text><text text-anchor="middle" transform="translate(570,15)" font-family="sans-serif" font-size="10px" fill="#000" opacity="0">450</text><text text-anchor="end" transform="translate(600,15)" font-family="sans-serif" font-size="10px" fill="#000" opacity="1">500</text></g><g class="mark-rule role-axis-domain" pointer-events="none"><line transform="translate(0,0)" x2="600" y2="0" stroke="#888" stroke-width="1" opacity="1"/></g><g class="mark-text role-axis-title" pointer-events="none"><text text-anchor="middle" transform="translate(300,30)" font-family="sans-serif" font-size="11px" font-weight="bold" fill="#000" opacity="1">x</text></g></g><path class="foreground" aria-hidden="true" d="" pointer-events="none" display="none"/></g></g><g class="mark-group role-axis" role="graphics-symbol" aria-roledescription="axis" aria-label="Y-axis titled 'y' for a linear scale with values from −500 to 500"><g transform="translate(0.5,0.5)"><path class="background" aria-hidden="true" d="M0,0h0v0h0Z" pointer-events="none"/><g><g class="mark-rule role-axis-tick" pointer-events="none"><line transform="translate(0,600)" x2="-5" y2="0" stroke="#888" stroke-width="1" opacity="1"/><line transform="translate(0,570)" x2="-5" y2="0" stroke="#888" stroke-width="1" opacity="1"/><line transform="translate(0,540)" x2="-5" y2="0" stroke="#888" stroke-width="1" opacity="1"/><line transform="translate(0,510)" x2="-5" y2="0" stroke="#888" stroke-width="1" opacity="1"/><line transform="translate(0,480)" x2="-5" y2="0" stroke="#888" stroke-width="1" opacity="1"/><line transform="translate(0,450)" x2="-5" y2="0" stroke="#888" stroke-width="1" opacity="1"/><line transform="translate(0,420)" x2="-5" y2="0" stroke="#888" stroke-width="1" opacity="1"/><line transform="translate(0,390)" x2="-5" y2="0" stroke="#888" stroke-width="1" opacity="1"/><line transform="translate(0,360)" x2="-5" y2="0" stroke="#888" stroke-width="1" opacity="1"/><line transform="translate(0,330)" x2="-5" y2="0" stroke="#888" stroke-width="1" opacity="1"/><line transform="translate(0,300)" x2="-5" y2="0" stroke="#888" stroke-width="1" opacity="1"/><line transform="translate(0,270)" x2="-5" y2="0" stroke="#888" stroke-width="1" opacity="1"/><line transform="translate(0,240)" x2="-5" y2="0" stroke="#888" stroke-width="1" opacity="1"/><line transform="translate(0,210)" x2="-5" y2="0" stroke="#888" stroke-width="1" opacity="1"/><line transform="translate(0,180)" x2="-5" y2="0" stroke="#888" stroke-width="1" opacity="1"/><line transform="translate(0,150)" x2="-5" y2="0" stroke="#888" stroke-width="1" opacity="1"/><line transform="translate(0,120)" x2="-5" y2="0" stroke="#888" stroke-width="1" opacity="1"/><line transform="translate(0,90)" x2="-5" y2="0" stroke="#888" stroke-width="1" opacity="1"/><line transform="translate(0,60)" x2="-5" y2="0" stroke="#888" stroke-width="1" opacity="1"/><line transform="translate(0,30)" x2="-5" y2="0" stroke="#888" stroke-width="1" opacity="1"/><line transform="translate(0,0)" x2="-5" y2="0" stroke="#888" stroke-width="1" opacity="1"/></g><g class="mark-text role-axis-label" pointer-events="none"><text text-anchor="end" transform="translate(-7,603)" font-family="sans-serif" font-size="10px" fill="#000" opacity="1">−500</text><text text-anchor="end" transform="translate(-7,573)" font-family="sans-serif" font-size="10px" fill="#000" opacity="1">−450</text><text text-anchor="end" transform="translate(-7,543)" font-family="sans-serif" font-size="10px" fill="#000" opacity="1">−400</text><text text-anchor="end" transform="translate(-7,513)" font-family="sans-serif" font-size="10px" fill="#000" opacity="1">−350</text><text text-anchor="end" transform="translate(-7,483)" font-family="sans-serif" font-size="10px" fill="#000" opacity="1">−300</text><text text-anchor="end" transform="translate(-7,453)" font-family="sans-serif" font-size="10px" fill="#000" opacity="1">−250</text><text text-anchor="end" transform="translate(-7,423)" font-family="sans-serif" font-size="10px" fill="#000" opacity="1">−200</text><text text-anchor="end" transform="translate(-7,393)" font-family="sans-serif" font-size="10px" fill="#000" opacity="1">−150</text><text text-anchor="end" transform="translate(-7,363)" font-family="sans-serif" font-size="10px" fill="#000" opacity="1">−100</text><text text-anchor="end" transform="translate(-7,333)" font-family="sans-serif" font-size="10px" fill="#000" opacity="1">−50</text><text text-anchor="end" transform="translate(-7,303)" font-family="sans-serif" font-size="10px" fill="#000" opacity="1">0</text><text text-anchor="end" transform="translate(-7,273)" font-family="sans-serif" font-size="10px" fill="#000" opacity="1">50</text><text text-anchor="end" transform="translate(-7,243)" font-family="sans-serif" font-size="10px" fill="#000" opacity="1">100</text><text text-anchor="end" transform="translate(-7,213)" font-family="sans-serif" font-size="10px" fill="#000" opacity="1">150</text><text text-anchor="end" transform="translate(-7,183.00000000000003)" font-family="sans-serif" font-size="10px" fill="#000" opacity="1">200</text><text text-anchor="end" transform="translate(-7,153)" font-family="sans-serif" font-size="10px" fill="#000" opacity="1">250</text><text text-anchor="end" transform="translate(-7,122.99999999999997)" font-family="sans-serif" font-size="10px" fill="#000" opacity="1">300</text><text text-anchor="end" transform="translate(-7,93.00000000000001)" font-family="sans-serif" font-size="10px" fill="#000" opacity="1">350</text><text text-anchor="end" transform="translate(-7,62.999999999999986)" font-family="sans-serif" font-size="10px" fill="#000" opacity="1">400</text><text text-anchor="end" transform="translate(-7,33.00000000000003)" font-family="sans-serif" font-size="10px" fill="#000" opacity="1">450</text><text text-anchor="end" transform="translate(-7,3)" font-family="sans-serif" font-size="10px" fill="#000" opacity="1">500</text></g><g class="mark-rule role-axis-domain" pointer-events="none"><line transform="translate(0,600)" x2="0" y2="-600" stroke="#888" stroke-width="1" opacity="1"/></g><g class="mark-text role-axis-title" pointer-events="none"><text text-anchor="middle" transform="translate(-33.53333282470703,300) rotate(-90) translate(0,-2)" font-family="sans-serif" font-size="11px" font-weight="bold" fill="#000" opacity="1">y</text></g></g><path class="foreground" aria-hidden="true" d="" pointer-events="none" display="none"/></g></g><g class="mark-group role-scope pathgroup" role="graphics-object" aria-roledescription="group mark container"><g transform="translate(0,0)"><path class="background" aria-hidden="true" d="M0,0h600v600h-600Z"/><g><g class="mark-line role-mark marks" role="graphics-object" aria-roledescription="line mark container"><path aria-label="x: 0; y: 0; label: levy; ord: undefined" role="graphics-symbol" aria-roledescription="line mark" d="M300,300L287.4391437198134,294.25450740119794L287.4173961389241,293.7305619001758L278.7742797651693,287.26265276767657L278.9809867069059,287.59168871887476L281.8912847279159,286.9842641020929L284.77899403731743,291.7588441569894L282.45988411934405,292.4721647606277L279.67913485318655,290.7818902804633L278.8239793053247,292.59196627770586L279.9424709967181,292.62609323535924L280.57586159546025,293.5914820284325L280.61699799934746,293.68844612535725L281.59354856360255,295.5313479125611L281.5775060732984,295.43242934656246L282.4010989878944,296.6553879206906L296.39043231529536,270.7333818904428L274.7881897866461,270.1934940487741L276.21621392703366,276.2166858105331L276.71472807658046,275.40879419220795L275.7225021528944,277.202854070555L275.5431898772141,277.18039041937396L274.44083352744127,277.80117362911886L259.0450556667879,279.04883335759894L257.8777884853082,283.2631089173068L257.98097677380724,283.19553090269784L264.9983857857358,301.7090897609616L200.925436177521,309.56486933154787L201.11960568642277,308.8593929670784L200.36010931472873,310.0949252514339L201.27107796429337,311.37227883816126L204.465979600214,309.9981532059118L204.76461796822772,309.8569960148736L194.45963627435313,300.59485038835845L194.4293135022674,300.831337172501L194.61136872825315,300.4383709928244L218.3093239263169,284.4268944922641L283.82980786497933,290.0476997875635L283.2990188536397,290.4192928847799L282.6680029804511,290.18153037577514L295.0124849472935,286.25620235553396L298.7806632606867,286.9260068207697L298.34101840993253,285.5819285925864L299.8280801059726,284.726770832427L299.12493792424556,285.293191176743L299.2921883276373,285.18122233603503L345.85433121000466,353.05247048062404L338.1186659600748,350.62163934763566L338.43055563821554,349.9392522482501L339.7967086240839,350.3269960066451L340.1533721165863,352.0168223752363L333.52413261425585,348.1432761244728L333.9851518747959,348.17762925274593L333.8876377873463,347.75667132637733L332.00086574838457,348.04658012603966L266.5363966197779,348.8991195149748L267.87627898861643,347.6966900292959L268.31315183112883,347.36263271825527L268.256569040012,347.4414531716791L264.62581834126877,345.3332435799216L286.01491355798345,307.792326826062L286.0477755603264,309.2620905019878L285.46457757244815,309.0580441763336L285.59112753954213,308.97733749449696L285.80806463668114,309.798203668321L285.72181683086717,309.7929095446667L286.52352880220525,311.7388462533473L285.9285094275865,310.89886499369584L283.8531622637346,312.6439290430712L296.73236893109845,296.5512475624611L300.17017312788465,295.00587213955885L302.1083858444446,294.4867063313161L298.568637630015,293.1730928672017L299.22563116885846,293.5667473175231L299.38461993858715,293.5643027816938L299.50971628868746,293.89487086923015L299.62908837891126,294.0187092152933L286.44721135048894,300.38651181205944L285.3428912946464,298.7744964555299L285.8199697883223,299.8539998536478L286.01500934896,299.0376961684789L286.5327640647174,302.30277716837236L285.8051166760289,302.210863420646L286.1456148752217,303.1730916445698L286.2341001229125,303.68868157578225L286.6625618278882,303.6578154324847L286.577609460576,303.5307130308501L286.82660806875964,303.6197380423691L286.9162306889377,303.6464887989779L287.76808404884696,302.01351838100186L288.05305849032897,302.5148779150582L287.6119711479073,302.6142458756109L288.0046792334429,302.4701658537291L287.7533435337375,301.9077649108448L286.71377334533065,299.2028497641071L288.3342255832954,301.59205892609543L288.43995122042264,301.7293333764064L287.88801247175996,301.08951289461567L288.18389848418946,302.405509394718L294.6132626393777,301.18185773929207L293.43026005343097,300.8534621408999L293.54359925297126,300.7317111067486L293.8047313754379,300.5304023939896L293.5319998445056,301.0862732118325L294.2317760521286,300.97570429508494L291.62485392470154,296.3198415875929L292.6128242637707,297.2476678701714L292.5736061211946,300.03386466968726L292.88401094010226,300.3304999051658L292.85648386392154,300.52133020590827L313.0496614682506,247.13915726115272L312.3054355938162,247.29910559657768L309.00591752425436,252.9433462562169L309.2436903428155,252.89140395104548L309.7725674128439,253.3548601403425L310.2156349935767,252.34920938549578L304.91919913771346,232.60002214891108L304.923946383994,232.6968692964718L305.23650789557274,232.55555420809256L308.4286132273341,225.34081775443033L309.48734210132534,225.35745043079154L308.0908601966969,225.70688088991352L286.7292277145279,232.528947753467L286.7339175617314,233.86606239726936L286.41637785198844,233.4223283966965L297.911951435819,254.88398274999312L297.9775234140244,253.151348347097L294.5357778384945,253.22651242587352L292.18281223673137,275.78764382382406L290.0463302634632,279.47941757754427L303.2367436389411,256.2551011173628L302.9773679431707,256.2757188298573L289.57387239234885,271.64632818636716L292.5384460012021,275.8335673194763L292.11510214781373,275.61208643396805L292.35940333308747,274.4206108183981L292.8156361739105,274.432513564281L294.74374403157424,263.6596898776171L294.6312678174475,263.3770888557712L294.45081996470583,263.07412261104196L305.554074634384,258.71002014335966L303.27014925707016,260.2002128406817L303.89429459580936,261.60078830728247L303.9714449593087,261.16995462740135L303.4439471080267,260.3375671048169L303.03804171065536,259.8543130433129L302.37916444199783,260.4805231164192L302.208986875395,260.28151527208905L304.5572754243416,257.6004496190384L304.8908094825199,257.53478526345316L303.2562304382506,257.9640892764215L301.02582009222726,256.5815244177515L300.84951034638783,256.4115584462326L307.0797751276272,262.5273178762381L315.80134766406496,257.9612223070137L316.009757690898,257.63861824784453L315.93975340378864,257.7022577448117L312.9858429176391,257.88804824253447L308.413183627849,259.918186413375L309.8346222406897,262.66293338486605L310.3254060029456,262.50602184081987L311.26219221875147,264.18903659826543L310.5380983878189,263.6123784173565L305.7574906449325,263.5524256197399L305.8036192359171,264.7085283849575L306.1733088764999,262.8395784768347L304.44101958990973,261.5858432989689L292.68085539079283,262.86588613711655L290.1661171320708,264.4438517335675L309.1870413315977,279.87040807437137L309.912655166572,278.2820678819658L311.1134534908804,276.43795347335424L311.6206548114693,276.19262624774836L310.0485393112494,278.219122171303L311.4767976049165,281.2186998616793L306.8113163205975,278.8034616120614L306.4767423119184,278.6513538813513L306.8094051332078,276.0315826382426L307.1222406439788,276.28425968226406L305.253822613634,276.61920897782954L323.6921951557536,281.31494250574866L321.8367418826881,280.6980855027118L322.6297660239658,278.53225616068795L322.94601140406246,278.1151723900902L333.1159990915605,286.0259652717462L269.38953244343975,277.33919352943855L268.8463510544751,278.2699898097174L270.64343299368926,278.47514226096223L271.9583112258154,275.68666942321363L272.0172821491376,276.25795740793234L271.99319035214796,276.64784280512856L272.1227042876168,277.17090657499745L273.15270519013797,277.4105368838195L284.6863211727052,302.4698332852169L284.41531183655985,302.4343860915208L284.304354011356,301.9674637737421L284.6970125428979,301.90002284810186L285.3041658629525,301.7478519520878L294.69512416354615,299.0888368905976L293.45609945266585,298.4374464268939L293.8228130673665,298.43213601714865L294.06280069511627,298.2143586581724L295.5749121053965,295.6365464278187L288.82798252410237,277.93982255403216L290.07338514152343,274.65183917010893L288.7742302815968,274.69153883948997L289.00119490399385,274.45946790990246L282.37531700236696,285.44161919170597L275.57687588100697,324.45896299660575L328.5178955423481,303.02030765364395L328.9465659681931,302.75378338242194L328.77449719880264,301.8935943372109L343.87594543786895,298.61868709455325L343.8312518557541,297.7287454385428L342.4842618654207,297.395523426597L343.81811161868916,294.44031172910536L344.23620251639636,293.7253775562417L344.699603458858,293.6906768499227L343.4015093064053,294.9273071588377L343.1998608215867,295.0681772635727L339.1049125646759,292.09536635713897L341.17694250489063,290.80559581639545L335.5193515733735,294.2820658227398L334.658590114957,294.9859011782075L332.8245834792101,295.8726922166355L331.9256669625691,296.02255419891577L332.2619650282871,295.3614049025145L331.67225196294976,294.5712116620578L330.785425019102,295.063997557886L331.89754735945814,295.2455160922583L331.855244737901,295.0981487123227L332.27959605128274,296.54827018459736L328.69735121369786,309.90414411559135L333.38312699802884,311.21609140039925L345.1337055260191,322.44675625121965L347.71051992171044,327.29417925711704L348.86084221625026,326.5685397155471L349.38353865696666,335.0772997407406L353.5373475686486,332.14075291232297L352.23583344931654,332.1126924137267L348.4959081269483,330.51403801926216L348.45800341707405,330.7631544961485L349.3006344911907,329.37404633736185L349.09229658750485,329.17581652128854L348.83511137871284,329.15773582924L348.7941329290318,329.20059064903995L332.01808212836323,328.6773779460771L332.32787423458825,328.83465879588607L330.8156327761005,310.77531010338424L333.22231883205524,313.6232886863255L338.95167037545497,320.48439792002785L338.37813956003794,320.3536503815089L340.35802306267715,322.6385276850589L340.27333894570484,322.3284868630603L340.1956364608044,322.28290295160457L342.35715161471154,320.2804348517484L341.99287672223966,332.97238894107943L341.6093856888143,333.80601024521167L338.92021362504954,336.9693754133178L338.78246994510266,336.4616944672213L338.63456934416297,338.09764223707316L337.12883611529963,334.82476856680603L336.90986440043616,334.589019502919L335.72269723291834,337.9840501280233L336.1476199326547,337.837925901041L335.48929667483304,337.82434134800764L330.696885073223,328.8889880196538L330.7188557820719,329.15285963262875L330.559021281315,329.25332691262037L332.450686731378,328.5122406855626L332.61674348133613,328.36341642536826L332.7683427251234,328.29269166217927L332.8876691475142,328.01814574937714L353.25952476884584,353.849108480247L353.15712734218016,353.70016877795234L352.5033593520724,353.25341129079067L362.30038338574025,356.8240351827027L350.88065516971005,348.9521811924828L351.2544730745075,347.1948305065571L350.1521824925175,346.9512731033174L351.27746083898927,344.3163516964937L364.81964172305896,334.6561713784036L364.80438513734117,334.19375770592154L363.7134244427494,334.77921318895466L364.176218695934,334.28880457025474L363.37252549209893,333.8504099490169L372.93611718148696,329.43334675524244L372.5948609693379,328.5265793856538L373.88996797793783,321.17807120282396L373.49673601290374,320.6056207059504L373.4251002721858,320.70720309480674L415.6898956463477,327.4625424795568L417.955176407262,328.7411929548516L429.08100416141485,341.0342808350641L429.33311671462377,340.90232566996104L429.57991317406095,340.57786716906554L429.24481146032724,340.90417487941033L429.4895650512979,340.46317183080356L431.8754369583222,337.86326811138247L430.4659123359193,338.0936697157641L430.38237589714925,338.28256055319844L437.16888021304305,375.3268907882999L436.8879190769899,375.44048199204025L439.1907732605616,363.0978172954802L438.694122237248,363.499885062247L438.27322729939743,363.3089213696746L437.1075230517877,364.00146100242154L438.337754158804,364.3315085320439L415.73466026901747,333.85431762699994L416.1530308290142,334.38099298856434L405.3195917014193,336.36949199296873L406.311297153608,338.15016230906735L405.95584816482045,347.0235853647925L405.16664940652515,346.6217249313996L474.4118126022618,323.02881775985986L477.13771676958015,323.6055019982058L475.18396709843137,323.0055893226378L475.6512352132808,323.7651954338572L475.70140190386735,323.49647894937374L475.70813409875933,324.1957672852248L475.13544440798694,323.8027525794344L474.0057032172974,324.2952072511266L474.36591072269516,324.903739302451L474.27020091631204,324.76060757323097L473.6553517296976,324.3243783601185L474.4045101651216,323.7759399678907L475.28851264354756,323.3365090647416L476.08261374292357,322.98893116701606L470.4067658698472,332.0173256942798L465.141945628883,320.90721045189355L465.41620798709977,321.0479893986617L457.10527783049224,317.1826128758712L456.9677665632217,316.9981798725146L456.76260990668646,317.5549017485615L460.73915576247776,316.1705861658732L461.42898226189476,316.34049316109684L472.2624699829548,301.0197007495848L472.79668587334487,301.7434633740703L475.8760688479978,302.6456778655212L475.92564787786006,303.1373000958257L475.5175890242502,302.6256069837827L475.90542727204024,302.84406362272233L475.588077467692,304.1741460102644L475.7906449906205,304.37843304274475L475.2882383044749,304.4133731892728L468.8545802129591,294.84936685700416L467.46453407586506,295.23075297299175L467.7335886397329,295.75396041865054L467.43116154231296,296.18872444038004L467.3214168602663,296.1397771260922L463.89444769001295,294.62034708467615L462.76487143938596,294.36715428270634L463.61376260893667,294.4087056463293L463.41090253548833,294.9820415045824L465.7751683873213,293.50467160102386L461.49326284703227,294.11572115544567L465.32593770125465,304.46149952899395L464.1337540410851,305.4475265234219L465.3599499085612,308.7757059647045L466.38206035906865,310.8900983951864L466.58987973339157,311.27677872202486L466.40996974903567,306.46467271337406L465.4371928849174,304.69408766421185L468.69887689625966,309.4660924561098L468.19027160471416,309.97147456267294L470.36808175991956,289.96712390405537L490.24772892175736,339.54051619799026L492.86082455827955,339.0537773858123L491.61440122675515,339.4574962266007L492.1470989925338,339.8876892906966L492.28133357684914,341.6088625575471L476.5057256257198,316.626807249555L430.3264376678533,272.70752926397483L403.68735246325764,270.1066392061763L403.8829072539249,269.9181349564552L405.7129952486002,272.46140806357744L405.0253994749419,272.41500535662857L404.9911207690312,272.36217138530554L405.2426069995018,273.3148941594144L405.2119447799922,273.00953945863296L404.7701982121356,273.33577046557474L404.42774759165746,272.8725737116549L405.46012417671983,272.13497371631667L407.94959700085167,271.57743451878093L412.79392840552265,253.4235214931772L412.92963686388373,253.22498722555528L426.37118160035516,248.48792538951875L424.98476835513037,249.97318358440734L422.3117637114003,252.37618193894772L422.1656416069526,252.4417071220916L425.6323443728317,255.7049911791015L425.52692704914637,255.721518196807L422.3799580012237,252.39252308228814L422.30079546461235,251.72856425110248L417.9155984989721,245.609409840159L422.35393495659196,244.14878527136042L422.0033486902703,244.87537626771476L420.31684671197013,244.83176625030669L420.050082227728,245.1643486453067L419.6882611445445,245.78885939461964L417.41014691284363,248.20617003716222L417.0264496694632,248.68717008837402L417.0908673690685,248.491362262347L417.40445969112204,247.88550521361293L448.0483554495034,250.07956092717646L447.39437536025946,249.8422877425089L448.4439817852574,248.87554248063702L448.6028038135158,248.98257310801563L448.6861618511124,248.21411836318225L447.62386420225783,246.92218111046816L447.96495518209014,247.1155602592306L448.73129069139776,247.15331027887692L448.6874067667375,247.01736213346783L448.80713259451164,246.64718045092445L447.76877530637245,246.61940731361472L448.4097541527607,246.57414508899987L447.6172545943126,244.9517444682302L447.15210762855884,242.71387308929414L446.8347779758175,243.61846841677425L446.62624460073675,243.7059108106871L446.8892937505505,243.72079396374968L445.9845998494156,244.48397923248157L446.5144437257126,244.97135127418827L447.07379328130787,244.21884014254275L447.941875325382,242.14474930750885L454.942445150029,242.59582702673313L454.75285901592434,241.60010402754887L454.62825185031267,241.2822966465991L460.19870206234424,232.1649197631857L459.2839652439939,232.00749398847321L459.342804087987,232.2158548285857L458.73985874869345,233.75647407222735L459.5839237512027,234.61869586785446L460.8864306580029,236.18629435690698L465.7156515328347,234.38691890845493L481.98672552191,235.33657740660163L477.22811071663904,233.15155950589565L474.7996147393795,231.85383614683656L475.0271815184386,231.58385248997024L474.4882950605595,231.54523196085012L474.1509968601581,231.37598217730903L474.11289082119686,229.17126612774445L484.180473551798,234.65453034693385L481.5654624183781,232.09483940472924L481.7278755422954,231.9185749278341L481.6402771447122,231.80475303635788L481.0395307373779,230.5988673953296L463.2601212874144,180.03923147933958L462.7557129062884,179.64849717162193L460.27918750278303,185.53895208734824" stroke="#f58518" stroke-width="2"/></g></g><path class="foreground" aria-hidden="true" d="" display="none"/></g><g transform="translate(0,0)"><path class="background" aria-hidden="true" d="M0,0h600v600h-600Z"/><g><g class="mark-line role-mark marks" role="graphics-object" aria-roledescription="line mark container"><path aria-label="x: 0; y: 0; label: gaussian; ord: undefined" role="graphics-symbol" aria-roledescription="line mark" d="M300,300L293.609879181768,305.22420971727684L289.4414329483565,306.0567359515854L291.51725671732044,304.3968874963221L292.20990556474845,307.7281704998248L292.31111335710557,307.44534962399297L295.96109673174124,307.6782629541415L294.48158934018306,310.4612653585636L294.47155519120207,310.4442200328735L299.7280680223132,318.66211488388535L287.56799142222246,322.99523868249054L286.88346893848427,323.4384365946922L287.13182489230104,323.1015764900878L287.19318181305215,322.0725541990615L280.73652306967733,326.53567097345297L280.61047154062436,327.13216220370225L280.6840680341431,323.99946957884515L281.63095714459126,324.07259579462453L276.6444441693931,322.0774928411644L281.12651161468386,318.7395617767911L275.7935405409648,316.9179426437948L276.18585789105555,310.21469381139497L275.9923169138107,310.32770079647867L278.66034209542426,308.6583773340765L277.7775321585941,306.2283226918768L277.68743629229914,306.03698959395916L277.51574994729515,306.576951058186L279.7695432815073,303.04063199486404L266.9245421567785,300.6337946158001L270.65807741554215,294.66950005167064L279.8808056345911,297.22686958846657L283.43945266436475,290.76976920356526L288.1403370093523,297.4944428471147L289.25837374277023,300.6444882186778L288.9320887168536,299.6571100878646L289.35660194008085,299.54698193539923L298.7333938430718,299.7080350189792L298.80593970971233,299.92764310291125L299.01642563225977,294.6887732382462L296.87519289983135,297.98037660478036L299.93445062788635,294.3258487273552L300.3514243688786,296.69582165993273L305.3002297955566,295.9580991040698L305.025131361259,296.3733158556725L308.0768244901102,295.3527863644529L306.5000844162343,295.4247985840386L307.8163191604777,296.11443292832075L308.9904441116984,283.3944240522916L308.7324746043463,289.21284904418974L302.52974887424995,291.8621108301667L302.12563418840784,294.15176988762266L308.30139697498623,285.0445651292765L304.21991509235534,280.7223371005324L302.9102416354754,280.4012521445859L300.744265637178,285.8122873520676L298.93415750891035,285.5779117626205L297.55368504517617,293.6143258539424L300.8066408678324,298.1359544500404L305.46627248940024,289.53692774949394L305.4504481975538,289.57173104643095L311.3667661505535,286.7166564280295L311.37742370374235,286.84420115766443L307.05854664055477,291.68465465832054L309.8309241205758,295.8445153277108L316.1635010699729,295.7338742648796L326.6304446924712,297.897781461014L323.59637731288404,295.2977446683335L324.6883268122025,300.1234048775267L323.66939659871446,296.21128072244204L326.1963162466768,299.7836176445873L325.37872519278403,299.5695517539637L323.8650204989089,296.0932844925574L320.0896134963423,300.4462679636407L312.93614427397466,296.3172084165976L313.8073183521317,296.5918561968469L314.102756164809,295.38738461854695L314.817491815391,296.2248523903681L316.9373158600684,296.65649035328386L316.94363050711434,297.0502298920716L322.1752283282161,300.7483782098902L324.2990195608771,300.30999794929045L332.34307977801154,300.34045189004627L328.89717688949924,294.5328365991246L325.69995275388857,295.33615979093435L326.8001605352839,295.6029702263517L324.21589088347264,296.5529575339704L320.95832221376156,299.25045582883934L319.57017067536196,301.3907816089431L319.6856371868589,301.4690619504845L320.7055585948761,299.064192615967L321.7297582908988,301.58173317893755L322.426670005837,301.51083118114343L321.69246697953065,295.1415166929587L327.80538522873184,296.1191963806882L325.15751372216835,296.276247051835L319.539116447094,292.02035759629854L318.20137221191294,293.22146984041865L305.30445781416586,298.8455760113067L314.2738759431528,297.70619812577576L324.8088678420168,295.05136763634033L324.63928965763233,299.5332632982953L321.8005711999579,300.1554429979552L324.9254709322787,300.01470293059356L323.6669884887082,299.6540823245413L323.4601075353082,299.9037735022355L310.38040715560675,292.0600767126116L313.7178832645276,288.98868156801774L314.3811279894521,285.8538302115801L321.1052053488404,282.32385198174626L315.4245896901713,284.48639867817593L311.5189099693076,288.96839166516406L311.5374673094576,288.8157540368013L309.87397103867335,288.19519559116793L310.4923241957244,291.13621758488046L312.0182873419121,285.2189957907111L311.8208406890542,285.7597679648587L313.60691175921613,282.13879968599855L313.1277549696989,283.61180972240294L313.8998911485729,284.0430423447919L327.9295290370373,275.657840875085L322.1863790552056,273.71359785084996L317.2706266983341,270.62823783011544L317.67692224300106,270.480858265369L324.8025621831112,270.9623218075812L322.80981599654217,274.1170209863153L321.4487081766389,272.14214533598636L321.759445804637,275.53876272570614L323.08174858323554,275.8319760388851L323.9527045969752,267.0477638772199L325.19041380573015,269.09086356781347L321.31156957789443,278.07723986537997L328.2552661909482,284.4309829904984L325.16038152879764,284.26974144538815L322.9519356432026,283.39045642636734L328.12563695108656,278.4713359787582L331.37874397759924,273.748006067663L327.2196476792588,274.9967077575115L326.5926595015305,273.56181886405767L319.76759457241985,281.4691519643756L323.0920766888894,278.97749802645933L323.81144394942703,270.2174485814092L319.4949455112814,264.5507157274284L321.7233014296228,266.5090385924582L323.8269178545154,262.47350010778615L322.14465587712687,261.0695838488115L321.93061187506265,260.58684870455056L322.2458828280207,262.867848915363L327.06912814322686,261.42327713398237L332.50120129174803,259.532156240441L330.8761436738589,262.29926556487226L330.10872202628644,264.2943980153072L333.1232451832669,258.9042427669277L337.969822498983,261.0042461608033L341.0398705037353,256.9175309010554L351.4667391991213,256.5518216163238L353.07037182525363,258.9951608995444L353.83657518169616,253.4242531880053L345.1299178607001,257.78750086924344L336.7760555261401,255.88907837329418L334.2302955976249,251.21711918580445L341.4612492456303,244.68175011374615L340.4018579265398,245.8326327364989L329.86784104865836,243.94584192551997L329.82766473340166,244.0124130546574L325.5832487439812,252.63582670165133L323.4816434935993,257.61256936836406L327.1222944295399,255.61771159562377L334.02810776968056,258.77178349689405L341.70791456608947,256.4420887790833L340.35872187986524,261.83241232052217L333.8121982016177,256.4998257509971L334.21779849315055,257.21664256248806L331.68745013516707,260.32943751832664L334.12614020462354,262.9839057447006L334.3754732218591,267.56259163953763L331.8699819504858,257.9309111506041L334.83556202829715,253.04264437365856L331.22002677370256,254.06504160150428L329.86431909824034,254.6782514906716L323.46484237268555,248.293716636916L314.889170763361,254.37530129264948L314.48832926860103,253.58750751713595L311.99436448044054,254.57667344062884L300.29259795750477,247.19332858794724L308.94797033215855,246.50195774159187L305.2523507449651,248.30458077966895L304.3522242147989,249.11122583860782L291.1381078863332,242.23365749708702L290.47999788461635,240.91632126534773L294.74004188852194,251.51092390195035L296.3649848876652,257.46544936693437L293.16463168526946,254.82902984918775L293.24270319162406,254.68416413448455L296.04607950374105,255.8893571695757L295.6592471035596,254.77921071593696L295.7076160071234,254.77265366795277L295.72773131371076,257.8033335194745L296.0598874040106,257.55451283625143L296.52777440559225,254.7068035187251L295.987587745358,255.83281649864745L294.2137846998151,260.09367998264236L292.2242933748618,257.00728898313986L290.8326474481871,257.49797694793494L288.7916309409017,257.98248801294335L288.4762239080277,247.59148308289122L287.15646457151115,249.72138032706786L288.18043598405455,249.99918315712958L282.3410571270724,255.35034397978538L283.94629098430727,256.2725947143609L290.918518438435,258.96964773846344L296.5314278145976,264.49500993410334L296.8758518355807,264.790259499678L298.23948931466555,264.9281968587873L298.5095043445221,264.6550191663891L295.7639862373851,263.089364716883L292.5203148622558,259.24013713537323L287.0382452569756,253.09401618257442L286.49098477870206,252.56640007736337L286.60597807717687,252.60823359828407L286.8202977571131,247.1502027278873L295.16230390932975,250.41854918655423L295.1889797035359,250.48818690942898L296.7375698743276,246.3618036494942L298.30882954128845,243.21711337942182L300.4279791554186,244.64893088187787L301.48081035354284,248.30708743816433L304.74760095939337,255.44798017352537L300.0304995155364,249.36179952915595L298.8479203177129,249.0091105633024L299.6422210136986,258.86634008244306L299.69017350177097,259.072768993916L295.42149530580537,261.1837762050977L294.489651525527,261.87564310830805L304.390188434599,264.0138021409451L304.77305406064244,264.9263606856333L302.62887290457905,257.9457544885973L300.46332214693973,256.66245481537675L302.8063409436689,257.37233386996195L302.2567162628183,254.39469083551438L290.84816999462936,252.70382259598435L288.85971420735035,251.0677830268175L289.32269690398266,251.01789700490866L289.45186553923315,247.54535725636256L287.9480020466291,245.84425077213484L287.6283837361468,245.7122343388934L284.73282202372206,237.29282114699973L277.05095688852276,238.48274324540907L282.1764781053969,236.2996046604793L281.8014837693811,236.73927253311817L288.5137398970834,240.06607976367417L291.7795771618128,240.72340758561123L290.65810714147193,245.27006212263635L288.739576733668,241.8323555514868L288.615593982238,242.7774639796179L284.56179991183194,246.6108604080732L284.4383227225814,246.54488443508714L285.15481130052643,249.0597660312212L283.11467421279934,245.31392554327135L284.8492991611406,244.02670932585787L288.1068215335821,241.549894297707L289.4941385726317,243.6126489839267L290.1229161845325,239.8203497273336L293.4498861705526,236.81100531417755L296.84806133930294,233.6553544622509L296.96753330139677,233.8104464673386L297.13157828701236,233.75997337354107L298.7681114334756,229.11915061444031L299.02102783171233,229.33284305660607L292.8434375030075,228.3080444107074L290.4011190488961,225.33358098292402L291.40836751873553,221.87626903737043L288.61898014491567,225.19534564128534L286.47502034935263,221.4519734024733L286.300754473288,227.2237359826673L293.22788432935675,218.17123632790114L298.17027360011707,213.5129525004633L296.1623883484646,211.00445959938904L292.09161078687606,209.40539476089813L291.23132185780815,209.43254539071205L291.37902847079835,206.31746837640097L292.27172615420335,205.5196085004874L293.09833010863485,207.710593023926L292.2481821945361,210.12966849316012L292.3962768717847,210.1427219933998L300.94613323219505,211.8077628605282L303.75456567419064,224.89802161137516L299.92155767882684,215.5577635017232L303.34019904083425,217.18223764650116L305.41605041776216,216.75015928010328L304.9398333808168,216.42904838158L302.7122667803473,218.94318226764128L307.1894248609142,222.56266927933922L309.1875349529463,220.29831534234089L308.32722959707553,223.62811220980672L308.23939398118836,224.110555899591L307.57952123919546,230.55337257600152L305.4676483384956,233.22328141807895L304.58442074421333,235.3796736908229L309.7289929422112,235.25133714855707L312.5993050228408,235.52244705240162L312.07538997977286,234.9920068619899L309.7911691060519,236.8446215585935L313.1262547021551,244.15069892289392L313.99409832418894,245.8846663438748L316.3060942964594,251.27569189590398L319.76282747684,249.2827595571858L322.53622219176714,243.2015269382657L322.50834487222954,245.22166134777385L315.1511623404416,252.17357725520898L319.30032090088,256.43366519316515L315.00263660376226,256.1265460557337L315.4866744291829,254.94745795398487L304.6791425723692,257.2978059116391L289.7831222756195,256.0932823112985L290.5947410231455,256.5625843519022L293.21182550194334,261.57009860767L294.40795545201894,266.0706212694386L291.6055981065935,268.7019077939423L291.56499988131867,268.655003837487L289.43514953305356,272.71974309320007L289.39103741913885,277.95161402815484L288.23119389304514,276.87265691066557L298.68713556419027,275.9929498052425L294.67115677698297,270.4345663103824L295.5000458472125,269.34830903631797L291.72440749507365,270.1950343600716L289.45446603449227,270.6353075035729L293.28024120944224,272.3783705581111L297.5710501892917,278.7555165593102L298.4466340022528,278.3493430038896L292.69855815585714,272.8376291109186L292.71547787977346,273.6190038519833L293.4813691396779,273.1069091280494L288.6044789310647,278.6409084725873L289.20212501737177,276.9586810761089L280.44667707176217,282.6123122372773L287.68210148313483,284.2048180527229L288.517401458948,276.4711825731196L295.60617801831626,275.4156117997628L292.4455770429129,275.5330636288768L289.94751586143536,276.04599938451156L290.54247078641606,277.7837763917499L292.04179570352625,275.9357141946742L299.19751317854934,270.560133938765L301.57428354264687,271.19982852487965L307.1978761690067,273.29396535573505L306.21561592164045,275.3771219693216L307.37441681304574,275.41758641644816L311.69718003997224,268.55779242644616L319.8933178007087,272.1903367658744L320.7162691593512,272.38229465204176L318.8169184201781,270.6088632172351L316.4210375455279,273.1746728038312L315.20779140590025,270.844220460019L318.4479770116641,276.4725928511145L314.0074439777561,277.13078894513194L313.6012155034778,274.3344113081478L309.4594865203336,274.3291007404301L309.6515393412605,274.4366512426672L316.33129836341556,277.93023492946963L319.3713533409681,277.5593224927898L318.76572802072656,283.88191233662764L322.34049146931727,281.26780145692265L324.1126362717971,280.90938875170593L326.2136628837734,284.573905554824L322.8778637112895,285.6835958909872L327.62130194111705,288.0773271549886L332.7095508914796,290.4348432153806L337.7658121632388,291.414150957645L335.4937289148357,289.39504105755327L336.44662040100917,290.23054514730484L336.4199888703477,289.69103258742297L336.2127420140717,281.46409032585694L332.9419764519256,279.1969930942373L333.7353819501278,282.8360728040807L334.28765899405073,283.7149432252806L334.27297664411935,283.7224526696157L332.6627016910254,286.59595591978695L332.6718205291003,286.619543810132L332.75460641262026,286.6480571084879L336.7238780302065,283.806470500369L337.44330975298453,293.8365426393541L333.1316671879632,296.3019071249797L333.26427685707256,296.6497907312629L333.0969691534343,295.6807532694463L332.1138023793603,291.4166987452422L333.4598392382856,291.016606626004L323.4072149233048,292.15219878050453L324.3043924457396,290.9379729001447L322.2286600183401,294.37169233365006L310.58659761894745,287.13308060690093L313.1412584374221,286.3460231118744L310.58229464447106,290.1663263132721L304.122874738778,297.56697132601613L304.7723063217042,298.1832691629298L301.6621050253902,305.0692139385092L301.7595358861919,305.33669857687966L304.72393389141166,313.2952592173933L309.2672363303648,306.8086315537525L303.5571229212086,311.0408709526436L306.02788765551554,298.7439240536097L304.5746487761706,297.9087950275632L309.5537191266289,293.80023914353586L311.78364577367904,295.21423555344006L311.689853893761,302.0448715562933L315.129991176677,300.86538897194964L315.5899961090428,298.6706786590406L315.09610749669787,297.78853511797297L319.988456382226,292.72244617704564L321.9028601154616,293.05023524262447L315.8051865803343,294.9521682253754L321.8122757413556,297.7141268727977L320.6747874428668,298.4283993952374L321.46330654928465,292.66626119419163L315.7131169519732,290.64446252299376L319.3350628325569,289.1403383607343L317.0192688452913,289.6575070453885L315.6822926397545,291.4959270486549L304.31154934428173,295.60688365034287L304.95493739962825,290.45896920435075L306.14688975126467,289.7041297828784L304.1958754414528,286.5940145606407L297.70029616447084,287.64116366643066L302.2198646840927,287.2022254539249L301.8184417268123,287.4346537078658L307.26294350465963,289.52588346094313L311.49131832830125,290.4282466111246L311.9879991094419,292.4064265899753L307.30778356507966,294.73138105111536L310.67587247215613,293.972370486147L306.2669112795642,294.15301061933496L305.33249647258265,305.8517559920901L304.3142063504037,296.99622363451095L304.933834237819,296.2854763660348L311.5622050927226,290.0008185339528L313.7452688225297,292.08883031738566L324.65644043936277,279.05573900269957L331.80184169613017,290.3503073121158L324.7276056691275,291.5173947031313L322.5161663860175,294.8496022287248L322.30703237218114,294.4576932195204L327.6049837408602,299.5360620839548L325.17874150882807,302.61496674728534L325.1852716609042,294.8364405005994L325.12399811137595,294.81368123684945L323.808948182143,295.12567553934656L329.78344677016,299.2414183245393L329.6168122721433,298.00752847336895L327.8557405968228,297.3194818480389L326.51001361126987,287.566628328498" stroke="#4c78a8" stroke-width="2"/></g></g><path class="foreground" aria-hidden="true" d="" display="none"/></g></g><g class="mark-group role-legend" role="graphics-symbol" aria-roledescription="legend" aria-label="Symbol legend titled 'label' for stroke color with 2 values: gaussian, levy"><g transform="translate(618,0)"><path class="background" aria-hidden="true" d="M0,0h57v40h-57Z" pointer-events="none"/><g><g class="mark-group role-legend-entry"><g transform="translate(0,16)"><path class="background" aria-hidden="true" d="M0,0h0v0h0Z" pointer-events="none"/><g><g class="mark-group role-scope" role="graphics-object" aria-roledescription="group mark container"><g transform="translate(0,0)"><path class="background" aria-hidden="true" d="M0,0h56.06666564941406v11h-56.06666564941406Z" pointer-events="none" opacity="1"/><g><g class="mark-symbol role-legend-symbol" pointer-events="none"><path transform="translate(6,6)" d="M-5,0L5,0" stroke="#4c78a8" stroke-width="1.5" opacity="1"/></g><g class="mark-text role-legend-label" pointer-events="none"><text text-anchor="start" transform="translate(16,9)" font-family="sans-serif" font-size="10px" fill="#000" opacity="1">gaussian</text></g></g><path class="foreground" aria-hidden="true" d="" pointer-events="none" display="none"/></g><g transform="translate(0,13)"><path class="background" aria-hidden="true" d="M0,0h56.06666564941406v11h-56.06666564941406Z" pointer-events="none" opacity="1"/><g><g class="mark-symbol role-legend-symbol" pointer-events="none"><path transform="translate(6,6)" d="M-5,0L5,0" stroke="#f58518" stroke-width="1.5" opacity="1"/></g><g class="mark-text role-legend-label" pointer-events="none"><text text-anchor="start" transform="translate(16,9)" font-family="sans-serif" font-size="10px" fill="#000" opacity="1">levy</text></g></g><path class="foreground" aria-hidden="true" d="" pointer-events="none" display="none"/></g></g></g><path class="foreground" aria-hidden="true" d="" pointer-events="none" display="none"/></g></g><g class="mark-text role-legend-title" pointer-events="none"><text text-anchor="start" transform="translate(0,9)" font-family="sans-serif" font-size="11px" font-weight="bold" fill="#000" opacity="1">label</text></g></g><path class="foreground" aria-hidden="true" d="" pointer-events="none" display="none"/></g></g></g><path class="foreground" aria-hidden="true" d="" display="none"/></g></g></g></svg>